<svg xmlns="http://www.w3.org/2000/svg" version="1.1" width="600px" height="600px" viewBox="0 0 200 200" style="overflow:hidden!important;"><g id="svga-group-wrapper"><g id="svga-group-backs-single"><path id="SvgjsPath8834" d="M0 0h200v200H0V0z" fill="#ee97ba" stroke-width="none" opacity="1" stroke="none"></path><path id="SvgjsPath8835" d="M0 70.8 39.2 200l39.2-86.3L0 9.9v60.9zM200 0h-47.6l23 37.5L200 0zm-28.9 104.9 16.5-40.7-70.5-26.8 54 67.5zM51.3 200h101.1v-33.1l-73.9 19.5L51.3 200zm27.2-86.3 73.9 53.2L78.5 0v113.7z" fill="#df77a1" stroke-width="none" opacity="1" stroke="none"></path><path id="SvgjsPath8836" d="m134.4 0 2 130.8L176.2 0h-41.8zm18 166.9 47.6-14.5v-21.5L171.1 105l-18.7 61.9zm22.9-129.4 12.3 26.8 12.4 6.9V0l-24.7 37.5zm-58.2 0L96.7 26.6 117.1 0 81 18.3 46.7 0h-28l56.2 21.4L0 59.3v93.1L94.8 29l22.3 8.5zM0 200h94.2l42.2-69.2L0 189.1V200z" fill="#cf5a89" stroke-width="none" opacity="1" stroke="none"></path><path id="SvgjsPath8837" d="M104.4 70.8 91.1 13.5 166.2 0 90 8.6 88 0H68.2l3.5 10.6L0 18.7v11.1l73.7-13.2 19.5 59-65.3 28L0 70.8v5.4l24 29.2-24 10.2 24.5-9.6 57.4 69.8L51.3 200h27.2l11.1-14.9 12.3 14.9h7.9l-16.7-19.6 24.1-32.4 17.2 52.1-29.2-125.6 94.8-37v-7.6l-95.6 40.9zm12.7 77.1-30.9 24.4-57.7-67.9 65.7-25.7 22.9 69.2zm70.5 52.1H200l-47.6-95.1 35.2 95.1z" fill="#ffffff" stroke-width="none" opacity="1"></path></g><g id="svga-group-humanwrap-move" transform="matrix(1,0,0,1,0,0)"><g id="svga-group-humanwrap"><g id="svga-group-hair-back-move" transform="matrix(1,0,0,1,0,0)"><g id="svga-group-hair-back"><path id="SvgjsPath8467" d="m121.3 38-1.3-9.1-4-3.7-10.7-5.7H75L60 31.9 44.7 44.2l-2 19.3-2.4 18 13.7 36-3 13.7-13.7 25 5 22 20.4 15.3 41.3-2.6L121.3 38z" fill="#2a232b" stroke-width="none" opacity="1"></path><path id="SvgjsPath8468" d="m118.6 34.8-16.5-6.2s-23.4.5-24.4.7c-.9.2-24.1 20.3-24.1 20.3l-4 36.9 5.7 22.2 5.2 20.1 11.3 13.9 6.6 7.8 4.7 11.1 3.6-25.8 16.6-75.4 13-20.3 2.3-5.3z" fill="#1b141c" stroke-width="none" opacity="1"></path><path id="SvgjsPath8469" d="m85.7 34.1-.7-2.9 12.3-3.9 14.1 2.3-.7 3.1-25 1.4z" fill="#000000" stroke-width="none" opacity="1"></path></g></g><g id="svga-group-humanbody-back"><path id="SvgjsPath3406" d="m168.2 200-4.6-14.2-34.9-13.4-10.8-9.7-1.4-50.5h-33l-1.4 50.5-10.8 9.7-34.9 13.4-4.6 14.2-3 20h142.4z" fill="#f3d4cf" stroke-width="none" opacity="1" stroke="none"></path><path id="SvgjsPath3407" d="m83.5 112.2-1.4 50.5-10.8 9.7-34.9 13.4-4.6 14.2-3 20H39v-20l1.7-13.3 32.1-12.9 14.1-9.5 2-52.1z" fill="#d4958a" stroke-width="none" opacity="1" stroke="none"></path></g><g id="svga-group-chinshadow-single"><path id="SvgjsPath3901" d="m117.4 146.9-.9-34.7h-33l-1 38.2 10.7 7 4 1.1 4.1-1.1z" fill="#c5796d" stroke-width="none" opacity="1" stroke="none"></path></g><g id="svga-group-humanbody-front"></g><g id="svga-group-clothes-single"><path id="SvgjsPath8712" d="m172.7 220-3.8-19.9-4.5-15-35.7-12.7-8.9 11.4-14 5.6H94.2l-14-5.6-8.9-11.4-35.7 12.7-4.5 15-3.8 19.9z" fill="#9ed8d8" stroke-width="none" opacity="1" stroke="none"></path><path id="SvgjsPath8713" d="m93.1 193.4-15.9-6.2-7.5-10 6.7 10.8 16.4 6.5 13.7-.1 15.5-7-15.6 6.1H93.1zm-48 .6-5.6-4.6.3-1.1L72.5 174l-1.2-1.5-35.7 12.7-4.5 15-3.8 19.8h8.6l.7-18.3 2.9-12.1 5.3 5.5 9.3 17 1.4 7.9h2.1l-2.6-8.4-9.9-17.6zm110.7.6-9.8 17.7-2.4 7.7h2l1.3-7.2 9.3-17.1 7.2-7.4-7.6 6.3z" fill="#7fc9c9" stroke-width="none" opacity="1" stroke="none"></path></g><g id="svga-group-head" transform="matrix(1,0,0,1,0,0)"><g id="svga-group-ears-left-move" transform="matrix(1,0,0,1,0,0)"><g id="svga-group-ears-left"><path id="SvgjsPath4744" d="m67.3 102.2-3-7.2-9.2-8-3.6 12.9 4.7 12.7-.4 5.6 5 2.4 6-11.1z" fill="#f3d4cf" stroke-width="none" opacity="1"></path><path id="SvgjsPath4745" d="m53.5 100 1.9-8.4 3.7 10.6-.8 1 .4 5.9s-3.3-2.1-3.3-2.7.3-6.2.3-6.2l.9-.3-.9-4.5-1.6 6.1.4 3-1-4.5z" fill="#d4958a" stroke-width="none" opacity="1"></path><path id="SvgjsPath4746" d="m61.4 111.8-.7-12L55.1 87l9.2 8 3 7.2-.5 7.3-6 11.1-5-2.4 4.8.3z" fill="#e4b3ab" stroke-width="none" opacity="1"></path></g></g><g id="svga-group-ears-right-move" transform="matrix(1,0,0,1,0,0)"><g id="svga-group-ears-right"><path id="SvgjsPath4747" d="m132.7 102.2 3-7.2 9.2-8 3.6 12.9-4.7 12.7.4 5.6-5 2.4-6-11.1z" fill="#f3d4cf" stroke-width="none" opacity="1"></path><path id="SvgjsPath4748" d="m146.5 100-1.9-8.4-3.7 10.6.8 1-.4 5.9s3.3-2.1 3.3-2.7-.3-6.2-.3-6.2l-.9-.3.9-4.5 1.6 6.1-.4 3 1-4.5z" fill="#d4958a" stroke-width="none" opacity="1"></path><path id="SvgjsPath4749" d="m138.6 111.8.7-12 5.6-12.8-9.2 8-3 7.2.5 7.3 6 11.1 5-2.4-4.8.3z" fill="#e4b3ab" stroke-width="none" opacity="1"></path></g></g><g id="svga-group-faceshape-wrap"><g id="svga-group-faceshape-single"><path id="SvgjsPath3891" d="M136.8 61c-6.7-11.2-19-18.9-19-18.9-7-1.5-17.8-2.2-17.8-2.2s-10.8.8-17.8 2.2c0 0-12.4 7.6-19 18.9 0 0-5 14-5.2 23.9l2.1 23 6.6 19.2 6.3 8.4 23 15 4 1 4-1 22.9-14.9 6.3-8.4 6.6-19.2 2.1-23c-.2-9.9-5.1-24-5.1-24z" fill="#f3d4cf" stroke-width="none" opacity="1" stroke="none"></path><path id="SvgjsPath3892" d="m93.8 147.5-17.6-13.8-6.2-8.1-6.2-17.5-3-23 6-22.3 17-18 16-3.3 18 .6c-7-1.5-17.8-2.2-17.8-2.2s-10.8.8-17.8 2.2c0 0-12.4 7.6-19 18.9 0 0-5 14-5.2 23.9l2.1 23 6.6 19.2 6.3 8.4 23 15 4 1 4-1-3.7.3-6.5-3.3z" fill="#d4958a" stroke-width="none" opacity="1" stroke="none"></path></g></g><g id="svga-group-mouth-single-move" transform="matrix(1,0,0,1,0,0)"><g id="svga-group-mouth-single" transform="matrix(1,0,0,1,0,3)"><path id="SvgjsPath4545" d="m100.18 127.48-3.51-2.28-9.41 6.89 9.29 7.13 9.16.06 8.12-7.5-10.02-7.01z" fill="#da7c87" stroke-width="none" opacity="1" stroke="none"></path><path id="SvgjsPath4546" d="m83.94 131.29 6.09 1.78 10.64-1.9 9.53 1.72 6.58-1.72-7.01.86-9.35-1.79-10.33 2.22z" fill="#cb5f6c" stroke-width="none" opacity="1" stroke="none"></path><path id="SvgjsPath4547" d="m97.46 138.52 7.76-.17 4.6-4.38-5.16 3.49z" fill="#f9bfc6" stroke-width="none" opacity="1" stroke="none"></path><path id="SvgjsPath4548" d="m110.13 131.33-6.2-5.43-2.76 1.82 2.76-1.1z" fill="#f9bfc6" stroke-width="none" opacity="1" stroke="none"></path></g></g><g id="svga-group-eyes-left-move" transform="matrix(1,0,0,1,0,0)"><g id="svga-group-eyes-left"><g id="svga-group-eyesback-left"><path id="SvgjsPath6240" d="m91.9 100.1-5.1-4.5-8.8.1-6.8 3.8s5.7 4.2 7 4.8l8.6-.4 5.1-3.8z" fill="#ffffff" stroke-width="none" opacity="1"></path></g><g id="svga-group-eyesiriswrapper-left" transform="matrix(1,0,0,1,0,0)"><g id="svga-group-eyesiriscontrol-left" transform="matrix(1,0,0,1,0,0)"><g id="svga-group-eyesiris-left"><path id="SvgjsPath6462" d="M83.3 94.9h-3.7L77 97.5v3.7l2.6 2.6h3.7l2.6-2.6v-3.7z" fill="#4e60a3" stroke-width="none" opacity="1"></path><path id="SvgjsPath6463" d="M83.3 94.9c-.3 0-.6 0-.9.1-.3 0-.6 0-.9.1-.6 0-1.2.1-1.8.1l.1-.1c-.4.4-.8.9-1.3 1.3l-.7.7c-.3.3-.4.4-.7.6l.1-.1-.1 1.8c0 .6-.1 1.2-.1 1.8v-.1c.2.2.4.4.6.7.2.2.4.4.7.6.4.4.9.8 1.3 1.3h-.1c.6 0 1.2-.1 1.8-.1h1.8l-.2.1 1.3-1.3c.2-.2.4-.4.6-.7l.7-.7-.1.2v-3.6l.1.1c-.4-.4-.8-.9-1.2-1.3-.2-.2-.4-.4-.6-.7l-.4-.8zm0 0c.2.2.4.4.7.6.2.2.4.4.7.6.4.4.9.8 1.4 1.3l.1.1V101.3l-.1.1-.7.7c-.2.2-.4.4-.7.6l-1.3 1.3-.1.1H81.4c-.6 0-1.2 0-1.8-.1h-.1c-.4-.4-.8-.9-1.3-1.3-.2-.2-.4-.4-.6-.7-.2-.2-.4-.4-.7-.6 0-.6 0-1.2-.1-1.8l-.1-1.8v-.1l.1-.1c.2-.2.4-.4.6-.7l.7-.7 1.3-1.3.1-.1h.1c.6 0 1.2 0 1.9.1.3 0 .6 0 .9.1.3-.2.6-.1.9-.1z" fill="#253984" stroke-width="none" opacity="1"></path><path id="SvgjsPath6464" d="m83 98.2.4 1.4-.8 1.3-1.4.3-1.3-.7-.3-1.4.7-1.3 1.4-.4z" fill="#000000" stroke-width="none" opacity="1"></path><path id="SvgjsPath6465" d="m81.2 101.4-1.4-.8-.4-1.6.8-1.4 1.6-.4 1.4.8.4 1.6-.8 1.4-1.6.4zm-1.1-1 1.2.7 1.3-.3.7-1.2-.3-1.3-1.2-.7-1.3.3-.7 1.2.3 1.3z" fill="#253984" stroke-width="none" opacity="1"></path><path id="SvgjsPath6466" d="m79.5 96.2.8-.4 1 2.1-.8.4-1-2.1zm2.2 4.1h.9v.9h-.9v-.9z" fill="#ffffff" stroke-width="none" opacity="1"></path></g></g></g><g id="svga-group-eyesfront-left"><path id="SvgjsPath6248" d="M67.97 94.46v11.11l7.69 7.86h10.87l7.69-7.86V94.46l-7.69-7.86H75.66l-7.69 7.86zm3.25 4.89 6.84-3.78 8.83-.05 5.05 4.54-5.05 3.78-8.62.36c-1.34-.66-7.05-4.85-7.05-4.85z" fill="#f3d4cf" stroke-width="none" opacity="1"></path><path id="SvgjsPath6249" d="m91.94 100.07-5.06-4.54-8.82.05-6.84 3.77-1.53.02-1.72-.76 3.63-.89 6.18-3.06 9.49.07 4.08 3.94z" fill="#d4958a" stroke-width="none" opacity="1"></path><path id="SvgjsPath6250" d="m72.17 100.51-1.61-1.16-1.86-1.34 2.64.92 1.57-.84a24 24 0 0 0-.61-.22l-1.15-1.38 1.95.99.63.16 1.62-.87-.64-.36-.73-1.15 1.38.99.6.19 1.37-.74-.55-.33-.46-.77.84.65.6.21.09-.05 9.11-.19 4.98 4.83-5.24-4.2h-8.66l-6.38 3.66 6.6 4.67 8.52-.52 3.96-2.69-3.77 3.08-8.76.39-.54-.35-.81.76.21-.42.39-.47-1-.65-.45.32-.71.54.35-.52.6-.49-.99-.64-.85.48-.89.64.66-.79.75-.53-1.12-.73-1.01.47-.85.5.58-.71.89-.5-.86-.56-.04-.03-.75.2-1.33.6.89-.71.84-.34z" fill="#000000" stroke-width="none" opacity="1"></path></g></g></g><g id="svga-group-eyes-right-move" transform="matrix(1,0,0,1,0,0)"><g id="svga-group-eyes-right"><g id="svga-group-eyesback-right"><path id="SvgjsPath6241" d="m108.1 100.1 5.1-4.5 8.8.1 6.8 3.8s-5.7 4.2-7 4.8l-8.6-.4-5.1-3.8z" fill="#ffffff" stroke-width="none" opacity="1"></path></g><g id="svga-group-eyesiriswrapper-right" transform="matrix(1,0,0,1,0,0)"><g id="svga-group-eyesiriscontrol-right" transform="matrix(1,0,0,1,0,0)"><g id="svga-group-eyesiris-right"><path id="SvgjsPath6467" d="M120.3 94.9h-3.6l-2.6 2.6v3.7l2.6 2.6h3.6l2.6-2.6v-3.7z" fill="#4e60a3" stroke-width="none" opacity="1"></path><path id="SvgjsPath6468" d="M120.3 94.9c-.3 0-.6 0-.9.1-.3 0-.6 0-.9.1-.6 0-1.2.1-1.8.1l.1-.1c-.4.4-.8.9-1.3 1.3l-.7.7c-.3.3-.4.4-.7.6l.1-.1-.1 1.8c0 .6-.1 1.2-.1 1.8v-.1c.2.2.4.4.6.7.2.2.4.4.7.6.4.4.9.8 1.3 1.3h-.1c.6 0 1.2-.1 1.8-.1h1.8l-.2.1 1.3-1.3c.2-.2.4-.4.6-.7l.7-.7-.1.2v-3.6l.1.1c-.4-.4-.8-.9-1.2-1.3-.2-.2-.4-.4-.6-.7l-.4-.8zm0 0c.2.2.4.4.7.6.2.2.4.4.7.6.4.4.9.8 1.4 1.3l.1.1V101.3l-.1.1-.7.7c-.2.2-.4.4-.7.6l-1.3 1.3-.1.1H118.4c-.6 0-1.2 0-1.8-.1h-.1c-.4-.4-.8-.9-1.3-1.3-.2-.2-.4-.4-.6-.7-.2-.2-.4-.4-.7-.6 0-.6 0-1.2-.1-1.8l-.1-1.8v-.1l.1-.1c.2-.2.4-.4.6-.7l.7-.7 1.3-1.3.1-.1h.1c.6 0 1.2 0 1.9.1.3 0 .6 0 .9.1.3-.2.6-.1.9-.1z" fill="#253984" stroke-width="none" opacity="1"></path><path id="SvgjsPath6469" d="m120 98.2.4 1.4-.8 1.3-1.4.3-1.3-.7-.3-1.4.7-1.3 1.5-.4z" fill="#000000" stroke-width="none" opacity="1"></path><path id="SvgjsPath6470" d="m118.2 101.4-1.4-.8-.4-1.6.8-1.4 1.6-.4 1.4.8.4 1.6-.8 1.4-1.6.4zm-1.1-1 1.2.7 1.3-.3.7-1.2-.3-1.3-1.2-.7-1.3.3-.7 1.2.3 1.3z" fill="#253984" stroke-width="none" opacity="1"></path><path id="SvgjsPath6471" d="m116.5 96.2.8-.4 1 2.1-.8.4-1-2.1zm2.2 4.1h.9v.9h-.9v-.9z" fill="#ffffff" stroke-width="none" opacity="1"></path></g></g></g><g id="svga-group-eyesfront-right"><path id="SvgjsPath6251" d="M124.34 86.6h-10.87l-7.69 7.86v11.11l7.69 7.86h10.87l7.69-7.86V94.46l-7.69-7.86zm-2.6 17.6-8.62-.36-5.05-3.78 5.05-4.54 8.83.05 6.84 3.78c-.01 0-5.72 4.19-7.05 4.85z" fill="#f3d4cf" stroke-width="none" opacity="1"></path><path id="SvgjsPath6254" d="m108.06 100.07 5.06-4.54 8.82.05 6.84 3.77 1.53.02 1.72-.76-3.63-.89-6.18-3.06-9.49.07-4.08 3.94z" fill="#d4958a" stroke-width="none" opacity="1"></path><path id="SvgjsPath6255" d="m127.83 100.51 1.61-1.16 1.86-1.34-2.64.92-1.57-.84a24 24 0 0 1 .61-.22l1.15-1.38-1.95.99-.63.16-1.62-.87.64-.36.73-1.15-1.38.99-.6.19-1.37-.74.55-.33.46-.77-.84.65-.6.21-.09-.05-9.11-.19-4.98 4.83 5.24-4.2h8.66l6.38 3.66-6.6 4.67-8.52-.52-3.96-2.69 3.77 3.08 8.76.39.54-.35.81.76-.21-.42-.39-.47 1-.65.45.32.71.54-.35-.52-.6-.49.99-.64.86.46.89.64-.66-.79-.75-.53 1.12-.73 1.01.47.85.5-.58-.71-.89-.5.86-.56.04-.03.75.2 1.33.6-.89-.71-.85-.32z" fill="#000000" stroke-width="none" opacity="1"></path></g></g></g><g id="svga-group-facehighlight-single"></g><g id="svga-group-eyebrows-left-move" transform="matrix(1,0,0,1,0,0)"><g id="svga-group-eyebrows-left-rotate" transform="matrix(1,0,0,1,0,0)"><g id="svga-group-eyebrows-left"><path id="SvgjsPath6721" d="m91.7 88.1.1 1.9-1.7 1.7-1.8-.7s-5.5-2.8-5.8-2.8S76 88 76 88l-7.3 2.9-1.3-1.1 6.1-5.1 6.6-.9 7.9 2.1 3.7 2.2z" fill="#2a232b" stroke-width="none" opacity="1"></path><path id="SvgjsPath6722" d="m80.1 83.8 1 .3 1.7 3.6-3-3.8.3-.1zm-10.8 4.4 4.1-.6-5.5 1.8 1.4-1.2zm20.3 2.1 1-2.9.9.5-1.9 2.4zm-.4-3.8-.6 3-.4-3.6 1 .6zM73.1 85l2.3.5-3.2.2.9-.7zm4-.8 2 2-3.1-1.9 1.1-.1z" fill="#3a353a" stroke-width="none" opacity="1"></path></g></g></g><g id="svga-group-eyebrows-right-move" transform="matrix(1,0,0,1,0,0)"><g id="svga-group-eyebrows-right-rotate" transform="matrix(1,0,0,1,0,0)"><g id="svga-group-eyebrows-right"><path id="SvgjsPath6723" d="m108.3 88.1-.1 1.9 1.7 1.7 1.8-.7s5.5-2.8 5.8-2.8 6.5-.2 6.5-.2l7.4 2.9 1.3-1.1-6.1-5.1-6.6-.9-7.9 2.1-3.8 2.2z" fill="#2a232b" stroke-width="none" opacity="1"></path><path id="SvgjsPath6724" d="m119.9 83.8-1 .3-1.7 3.6 3-3.8-.3-.1zm10.8 4.4-4.1-.6 5.5 1.8-1.4-1.2zm-20.3 2.1-1-2.9-.9.5 1.9 2.4zm.4-3.8.6 3 .4-3.6-1 .6zm16.1-1.5-2.3.5 3.2.2-.9-.7zm-4-.8-2 2 3.2-1.8-1.2-.2z" fill="#3a353a" stroke-width="none" opacity="1"></path></g></g></g><g id="svga-group-nose-single-move" transform="matrix(1,0,0,1,0,0)"><g id="svga-group-nose-single" transform="matrix(1,0,0,1,0,2)"><path id="SvgjsPath4275" d="m93.25 113.14-3.28 4.66 3.08 3.94 4.12-2.2-4.12 1.3-2.25-3.3z" fill="#d4958a" stroke-width="none" opacity="1" stroke="none"></path><path id="SvgjsPath4276" d="m106.75 113.14 3.28 4.66-3.08 3.94-4.12-2.2 4.12 1.3 2.25-3.3z" fill="#d4958a" stroke-width="none" opacity="1" stroke="none"></path><path id="SvgjsPath4277" d="m104.97 117.51.95-2.11-1.74 2.4-4.18 2-4.18-2-1.74-2.4.95 2.11-2.3 1.13.84 1.23 2.67-1.15 3.76 2.05 3.76-2.05 2.67 1.15.84-1.23z" fill="#d4958a" stroke-width="none" opacity="1" stroke="none"></path><path id="SvgjsPath4278" d="m96.3 110.5 1.55-.44 5.65.18-1.5-.8-4.6-.4z" fill="#d4958a" stroke-width="none" opacity="1" stroke="none"></path><path id="SvgjsPath4279" d="m97.45 102.28-.8 6.94.75-.93.49-3.62z" fill="#d4958a" stroke-width="none" opacity="1" stroke="none"></path><path id="SvgjsPath4280" d="m95.73 112.93 2.2-1.63 4.29-.05 1.94 1.95-1.37 3.75-3.04.53-2.74-.57z" fill="#fbe5e2" stroke-width="none" opacity="1" stroke="none"></path></g></g><g id="svga-group-hair-front"><path id="SvgjsPath8464" d="M61.5 99.7 57 88.8l.2-12.4 1.1-.9 1.8-10.8 1.2-1.1 1.7-8.2 1.8-1.3 2.3-7.1 8-9.8 5.4-2.3 2.5-1.5 3.4-.3 1.1-1.5 13.7-2 1 1.1 9.6.1 3.1 2.4 7.8 1.8 9.3 8.4 4.6 10.7 2.2 2.6.7 3.2 2.2 2 .5 10.9 1.8 1.8v10.3l-.5 3.6-3.5 7.9-3.1-14.7-4-8.4-2.1-6.3-2.6-3.3-3.2-4.2-5.5.4-2.9-1.5-9.4 3.8-11.1-.2-9.3-3.3-6.3 2.3-3.6-1.4-3.4 5.3-3.7 4.2-2.3 6.1-3.1 6.8-2.9 17.7z" fill="#322c33" stroke-width="none" opacity="1"></path><path id="SvgjsPath8465" d="m96.1 62-7.6-10.7-1.2-12.7 1.9-6-4.4 5.4-.2 13.7 2.1 6.9 9.4 3.4zm-15.6-1s-4.3-11.7-4.3-12.2 3.7-11.6 3.7-11.6l3.1-3.7-5.9 3.9-4.2 14.1s3.4 7.7 4.1 8.2c.6.3 3.5 1.3 3.5 1.3zm-7 3.9-6.1-11-.3-6.9-2.3 7.2 2.1 9.2 3 5.7 3.6-4.2zm-12.2-1.3 2 9.3 2.6 6.5-1.8 5.1-6-9 1.8-10.8 1.4-1.1zm45.9-1.4c0-1.1 1.7-17.3 1.7-17.3L105 34.3l-2.9-3.6 5.5 3.4 5.3 11.6-.2 9-2.1 6.3-3.4 1.2zm12.3-2.3c.6-1.1 2-12.2 2-12.9s-3.9-10.6-3.9-10.6l-2.7-3.2 6.4 4.8 5.8 12.3-2.1 9.1-5.5.5zm11.3 7.1 3-12.6-1.8-11 4.6 10.8-1.6 9.6-4.2 3.2zm6.1 14.7 3.4-11.8 1.3-8 .5 10.9-3.1 8.1-2.1.8zm3.1 14.7s1.9-9.8 2.1-11.4 1.9-10.5 1.9-10.5v10.3s-.2 2.8-.5 3.6c-.4.9-3.5 8-3.5 8zm-78.5 3.3L57 88.8l.5-8.2 4 19.1zm4.8 99.8 9.1-12.3-.8-9.9 2.3-11.7-10.2-17.3-15.8-17-9.6 25.1s5.9 19 7.2 19.3S63 188.8 63 189.6s3.3 9.9 3.3 9.9z" fill="#2a232b" stroke-width="none" opacity="1"></path><path id="SvgjsPath8466" d="M93.4 27.2 75 19.5 44.7 44.2l-4.3 37.3 5.1 12.1L43 77.8l6.2-32.2L75.7 24l17.7 3.2zM51 131.2l-13.7 25 5 22 15.4 11.6 2.7 9.4-2.7 8.3 8.6-8 5.1-10.2-.8-7.5-22-12.6-4-15.3 6.4-22.7zm3.1 9.4-3 13.7 3 14 20.5 9-16.1-12.6-4.4-12.2v-11.9zM93.4 20.1l11.1 2.8 1.3 4.5-3.4-3.4-9-3.9z" fill="#3a353a" stroke-width="none" opacity="1"></path></g><g id="svga-group-glasses-single-move" transform="matrix(1,0,0,1,0,0)"><g id="svga-group-glasses-single"><path id="SvgjsPath7791" d="m73.8 105 12-9.3.1.2-12 9.3-.1-.2zm5.9-1-.1-.2 9.3-7.2.1.2-9.3 7.2zm-7.4 0-.1-.2 9.3-7.2.1.2-9.3 7.2z" fill="#ffffff" stroke-width="none" opacity="0.5"></path><path id="SvgjsPath7792" d="M91.7 105.7h-22l-1.1-1.1v-8.2l1.1-1.1h23.1l1 1.1v7.2z" fill="#ffffff" stroke-width="none" opacity="0.37"></path><path id="SvgjsPath7793" d="m113.2 105 12-9.3.1.2-12 9.3-.1-.2zm5.9-1-.2-.2 9.3-7.2.2.2-9.3 7.2zm-7.4 0-.2-.2 9.3-7.2.2.2-9.3 7.2z" fill="#ffffff" stroke-width="none" opacity="0.5"></path><path id="SvgjsPath7794" d="M108.8 105.7h22.1l1-1.1v-8.2l-1-1h-23.1l-1.1 1v7.2z" fill="#ffffff" stroke-width="none" opacity="0.37"></path><path id="SvgjsPath7795" d="M94.3 98.5c.4 0 .7 1 .7 2.2s-.3 2.2-.7 2.2-.7-1-.7-2.2.3-2.2.7-2.2zm11.9 0c.4 0 .7 1 .7 2.2s-.3 2.2-.7 2.2-.7-1-.7-2.2.3-2.2.7-2.2z" fill="#939393" stroke-width="none" opacity="1"></path><path id="SvgjsPath7796" d="m93.8 97.8 6.5-.7 6.4.7V99l-6.4-.6-6.5.6z" fill="#170904" stroke-width="none" opacity="1"></path><path id="SvgjsPath7797" d="M92.8 95H67v1.8h1.3v7.8l1.4 1.4h22.1l2.4-2.4v-7.2L92.8 95zm.7 8.6-1.7 1.7H69.7l-.7-.7v-8.2l.7-.7h23.1l.7.7v7.2zm40-8.6h-25.7l-1.4 1.4v7.2l2.4 2.4h22.1l1.4-1.4v-7.8h1.3V95h-.1zm-1.9 9.6-.7.7h-22.1l-1.7-1.7v-7.2l.7-.7h23.1l.7.7v8.2z" fill="#26120b" stroke-width="none" opacity="1"></path></g></g></g></g></g><rect id="svga-credit-rect" width="200" height="15" x="0" y="185" fill="#ecf0f1" opacity="0.5" style="display: none;"></rect><text id="svga-credit-text" font-family="Avenir Next, Roboto, Helvetica, Arial, sans-serif" font-size="10px" text-anchor="start" font-weight="400" size="10px" anchor="start" weight="400" fill="#333333" x="32.3828125" y="182.6015625" style="display: none;"><tspan id="SvgjsTspan3382" dy="13" x="32.3828125">Created on AvatarMaker.com</tspan></text></g><defs id="SvgjsDefs3334"></defs></svg>